<?xml version="1.0" standalone="no"?><!DOCTYPE svg PUBLIC "-//W3C//DTD SVG 1.1//EN" "http://www.w3.org/Graphics/SVG/1.1/DTD/svg11.dtd"><svg t="1585303277159" class="icon" viewBox="0 0 1024 1024" version="1.1" xmlns="http://www.w3.org/2000/svg" p-id="10354" xmlns:xlink="http://www.w3.org/1999/xlink" width="200" height="200"><defs><style type="text/css"></style></defs><path d="M828.162 446.745l79.435-213.76-61.744 18.97-57.331 154.277 141.411 201.364-245.845-10.242-107.924 143.63 18.222 65.2 136.988-182.311 227.844 9.492zM325.113 507.409l-7.827 5.202 155.199 53.201-2.437-8.722z" fill="#FCDE9E" p-id="10355"></path><path d="M754.25 410.65l54.767-147.377-119.405 36.685-32.43-25.69-24.544 7.541L510.433 185l-3.237 201.368-149.992 99.708 137.973 47.295 12.431 44.481 25.398 8.706 32.786 117.312 103.502-137.746 199.991 8.333z" fill="#FCDE9E" p-id="10356"></path><path d="M929.933 607.596l-141.41-201.364 57.331-154.276 28.38-76.371-235.207 72.264L446.154 95.058l-3.956 246.027-204.913 136.217 87.828 30.106 144.935 49.682 2.437 8.721 63.791 228.257 39.888-53.085 107.923-143.63 245.846 10.243zM565.792 703.87l-16.739 22.278-41.445-148.296-12.431-44.48-137.973-47.296-51.375-17.611 166.693-110.811 3.218-200.138L510.433 185l122.205 96.809 24.544-7.541 166.793-51.245-14.957 40.249L754.25 410.65l115.035 163.806-199.991-8.333L565.792 703.87z" fill="#58A80A" p-id="10357"></path><path d="M162.193 669.818c40.544-29.265 106.168-64.902 188.561-68.485 8.439-0.366 14.982-7.504 14.615-15.943-0.367-8.438-7.494-14.997-15.943-14.614-90.384 3.93-161.91 42.882-205.998 74.867-47.669 34.584-73.962 68.082-75.058 69.491-5.181 6.662-3.982 16.254 2.674 21.443a15.218 15.218 0 0 0 9.388 3.23c4.549 0 9.054-2.021 12.07-5.881 0.247-0.317 25.26-32.037 69.691-64.108zM341.759 673.673c-3.934-7.475-13.183-10.348-20.656-6.41-73.999 38.947-131.446 102.085-166.608 148.194-37.936 49.746-58.363 89.977-59.215 91.665-3.8 7.54-0.77 16.73 6.768 20.534a15.235 15.235 0 0 0 6.876 1.643c5.588 0 10.974-3.076 13.665-8.403 0.199-0.392 20.268-39.833 56.626-87.414 33.222-43.478 87.277-102.913 156.134-139.153 7.474-3.934 10.344-13.182 6.41-20.656zM415.201 667.102c-7.563-3.76-16.743-0.677-20.503 6.886-80.481 161.87-88.666 235.425-88.975 238.478-0.851 8.403 5.269 15.931 13.672 16.782 0.526 0.053 1.047 0.079 1.565 0.079 7.75 0 14.391-5.85 15.189-13.728 0.076-0.705 8.509-72.263 85.938-227.994 3.759-7.564 0.677-16.743-6.886-20.503z" fill="#58A80A" p-id="10358"></path></svg>