<?xml version="1.0" standalone="no"?><!DOCTYPE svg PUBLIC "-//W3C//DTD SVG 1.1//EN" "http://www.w3.org/Graphics/SVG/1.1/DTD/svg11.dtd"><svg t="1585301729213" class="icon" viewBox="0 0 1024 1024" version="1.1" xmlns="http://www.w3.org/2000/svg" p-id="8442" xmlns:xlink="http://www.w3.org/1999/xlink" width="200" height="200"><defs><style type="text/css"></style></defs><path d="M507.9 135.3c9.2 0 16.6 7.4 16.6 16.6v362.4c0 9.2-7.4 16.6-16.6 16.6-9.2 0-16.6-7.4-16.6-16.6V151.9c0-9.2 7.4-16.6 16.6-16.6z" fill="#263554" p-id="8443"></path><path d="M512.2 914.5c-50.5 0-99.5-9.9-145.6-29.4-44.5-18.8-84.5-45.8-118.9-80.1-34.3-34.3-61.3-74.3-80.1-118.9-19.5-46.1-29.4-95.1-29.4-145.6 0-54.3 11.4-106.6 33.8-155.5 21.7-47.3 52.4-88.9 91.4-123.6 5.8-5.1 14.6-4.6 19.8 1.1 5.1 5.8 4.6 14.6-1.1 19.8-73.6 65.6-115.8 159.8-115.8 258.3 0 190.8 155.2 345.9 345.9 345.9s345.9-155.2 345.9-345.9c0-97.5-41.5-191-113.8-256.5-5.7-5.2-6.2-14-1-19.8 5.2-5.7 14-6.2 19.8-1 38.4 34.7 68.6 76.1 89.9 123.1 22 48.6 33.2 100.5 33.2 154.2 0 50.5-9.9 99.5-29.4 145.6-18.8 44.5-45.8 84.5-80.1 118.9-34.3 34.3-74.3 61.3-118.9 80.1-46.2 19.4-95.2 29.3-145.6 29.3z" fill="#263554" p-id="8444"></path></svg>