<?xml version="1.0" standalone="no"?><!DOCTYPE svg PUBLIC "-//W3C//DTD SVG 1.1//EN" "http://www.w3.org/Graphics/SVG/1.1/DTD/svg11.dtd"><svg t="1585287191304" class="icon" viewBox="0 0 1024 1024" version="1.1" xmlns="http://www.w3.org/2000/svg" p-id="6670" xmlns:xlink="http://www.w3.org/1999/xlink" width="200" height="200"><defs><style type="text/css"></style></defs><path d="M504.685714 522.971429c3.657143 3.657143 10.971429 10.971429 21.942857 10.971428s25.6-3.657143 25.6-3.657143c-3.657143 84.114286-36.571429 91.428571-51.2 87.771429-10.971429 0-25.6-3.657143-32.914285-29.257143-7.314286-21.942857-7.314286-58.514286-7.314286-58.514286s7.314286 3.657143 18.285714 3.657143c10.971429 3.657143 25.6-10.971429 25.6-10.971428zM636.342857 468.114286c0 14.628571-10.971429 25.6-29.257143 25.6-14.628571 0-29.257143-10.971429-29.257143-25.6 0-14.628571 10.971429-25.6 29.257143-25.6s29.257143 10.971429 29.257143 25.6zM833.828571 669.257143c-7.314286-7.314286-14.628571-14.628571-25.6-14.628572h-51.2-3.657142v-3.657142c3.657143-7.314286 3.657143-18.285714 3.657142-25.6v-21.942858c-3.657143-14.628571-14.628571-25.6-32.914285-25.6s-32.914286 14.628571-32.914286 29.257143v3.657143c0 10.971429-7.314286 25.6-18.285714 36.571429-10.971429 10.971429-21.942857 14.628571-25.6 14.628571h-43.885715c-7.314286 0-14.628571 3.657143-14.628571 10.971429v113.371428c0 7.314286 7.314286 10.971429 14.628571 10.971429h40.228572l142.628571 3.657143c7.314286 0 10.971429-3.657143 14.628572-3.657143l10.971428-10.971429v-3.657143c14.628571-21.942857 29.257143-87.771429 29.257143-91.428571v-3.657143c0-3.657143 0-10.971429-7.314286-18.285714z m-117.028571-58.514286c0-7.314286 3.657143-10.971429 7.314286-10.971428s7.314286 3.657143 7.314285 7.314285v18.285715c0 7.314286-3.657143 18.285714-3.657142 25.6l-3.657143 14.628571v7.314286c0 3.657143 3.657143 3.657143 7.314285 3.657143h73.142858c3.657143 0 7.314286 0 7.314285 3.657142v7.314286c0 7.314286-14.628571 69.485714-21.942857 87.771429l-3.657143 3.657143h-135.314285s-3.657143 0-3.657143-3.657143v-91.428572s0-3.657143 3.657143-3.657143c18.285714 0 32.914286-10.971429 43.885714-21.942857 14.628571-14.628571 21.942857-32.914286 21.942857-47.542857z m-84.114286 76.8v87.771429s0 3.657143-3.657143 3.657143h-10.971428-3.657143v-95.085715l18.285714 3.657143c-3.657143-3.657143-3.657143-3.657143 0 0-3.657143 0 0 0 0 0z" p-id="6671"></path><path d="M786.285714 808.228571l-142.628571-3.657142h-40.228572c-10.971429 0-18.285714-7.314286-18.285714-14.628572v-113.371428c0-10.971429 7.314286-18.285714 18.285714-18.285715h43.885715c3.657143 0 10.971429-3.657143 21.942857-14.628571 10.971429-10.971429 18.285714-21.942857 18.285714-32.914286v-3.657143c0-18.285714 18.285714-32.914286 36.571429-32.914285s32.914286 10.971429 36.571428 25.6v25.6c0 7.314286 0 18.285714-3.657143 25.6h51.2c10.971429 0 21.942857 7.314286 29.257143 18.285714 3.657143 7.314286 7.314286 14.628571 3.657143 21.942857v3.657143c-3.657143 10.971429-14.628571 73.142857-25.6 91.428571v3.657143l-10.971428 10.971429c-3.657143 3.657143-10.971429 7.314286-18.285715 7.314285z m-142.628571-10.971428h142.628571c3.657143 0 10.971429 0 14.628572-3.657143 3.657143-3.657143 7.314286-7.314286 10.971428-7.314286l3.657143-3.657143c10.971429-21.942857 21.942857-80.457143 25.6-91.428571v-3.657143c0-7.314286 0-10.971429-3.657143-18.285714-10.971429-3.657143-18.285714-10.971429-29.257143-10.971429h-51.2c-3.657143 0-3.657143 0-3.657142-3.657143v-3.657142c3.657143-7.314286 3.657143-18.285714 3.657142-25.6v-21.942858c-3.657143-10.971429-14.628571-21.942857-29.257142-21.942857-18.285714 0-32.914286 10.971429-32.914286 25.6v3.657143c0 10.971429-7.314286 25.6-21.942857 40.228572-7.314286 7.314286-18.285714 14.628571-25.6 14.628571h-43.885715c-3.657143 0-10.971429 3.657143-10.971428 7.314286v113.371428c0 3.657143 3.657143 7.314286 10.971428 7.314286l40.228572 3.657143c-3.657143 0 0 0 0 0z m142.628571-10.971429h-131.657143c-3.657143 0-7.314286-3.657143-7.314285-7.314285v-91.428572c0-3.657143 3.657143-3.657143 3.657143-7.314286 10.971429-3.657143 25.6-10.971429 36.571428-25.6 10.971429-14.628571 18.285714-29.257143 21.942857-43.885714v-3.657143c0-7.314286 7.314286-10.971429 10.971429-10.971428 7.314286 0 10.971429 3.657143 10.971428 10.971428v18.285715c0 10.971429-3.657143 18.285714-3.657142 29.257142v14.628572l3.657142 3.657143h73.142858c3.657143 0 7.314286 3.657143 10.971428 7.314285 0 0 3.657143 3.657143 3.657143 7.314286 0 7.314286-14.628571 69.485714-21.942857 87.771429v3.657143c0 3.657143-3.657143 3.657143-3.657143 3.657142-3.657143 3.657143-3.657143 3.657143-7.314286 3.657143z m-128-10.971428h131.657143l3.657143-3.657143V768c7.314286-18.285714 21.942857-80.457143 21.942857-84.114286v-3.657143l-3.657143-3.657142h-76.8c-3.657143 0-7.314286-3.657143-10.971428-3.657143-3.657143-3.657143-3.657143-7.314286 0-10.971429l7.314285-14.628571v-21.942857-14.628572c0-3.657143-3.657143-3.657143-3.657142-3.657143-3.657143 0-3.657143 3.657143-7.314286 3.657143v3.657143c0 14.628571-7.314286 32.914286-21.942857 47.542857-10.971429 10.971429-25.6 21.942857-40.228572 25.6v87.771429z m0-87.771429z m-32.914285 95.085714h-10.971429s-3.657143 0-3.657143-3.657142l-3.657143-3.657143v-95.085715h18.285715s3.657143 0 3.657142 3.657143l3.657143 3.657143v87.771429c0 3.657143-3.657143 7.314286-7.314285 7.314285z m-10.971429-7.314285z m0 0h10.971429v-87.771429h-7.314286l-3.657143 87.771429z" p-id="6672"></path><path d="M442.514286 475.428571c0-3.657143 0-7.314286-3.657143-10.971428l-51.2-32.914286c-3.657143-3.657143-14.628571-3.657143-18.285714 0-3.657143 7.314286-3.657143 14.628571 3.657142 18.285714l32.914286 21.942858-29.257143 14.628571c-7.314286 3.657143-10.971429 10.971429-7.314285 14.628571 3.657143 3.657143 7.314286 7.314286 10.971428 7.314286h3.657143l51.2-21.942857c3.657143-3.657143 7.314286-7.314286 7.314286-10.971429z" p-id="6673"></path><path d="M493.714286 822.857143c-149.942857 0-277.942857-113.371429-292.571429-266.971429-14.628571-160.914286 106.057143-303.542857 266.971429-318.171428 160.914286-14.628571 303.542857 106.057143 318.171428 266.971428 0 10.971429-7.314286 18.285714-18.285714 18.285715s-18.285714-7.314286-18.285714-18.285715c-14.628571-138.971429-138.971429-241.371429-277.942857-230.4-142.628571 14.628571-245.028571 138.971429-234.057143 277.942857 10.971429 138.971429 135.314286 245.028571 277.942857 234.057143 10.971429 0 18.285714 7.314286 18.285714 18.285715s-7.314286 18.285714-18.285714 18.285714h-21.942857z" p-id="6674"></path></svg>